<?xml version="1.0" encoding="UTF-8" standalone="no"?>
<!-- Created with Inkscape (http://www.inkscape.org/) -->

<svg
   width="257.73001mm"
   height="58.835945mm"
   viewBox="0 0 257.73001 58.835945"
   version="1.1"
   id="svg1"
   xml:space="preserve"
   xmlns="http://www.w3.org/2000/svg"
   xmlns:svg="http://www.w3.org/2000/svg"><defs
     id="defs1" /><g
     id="layer1"
     transform="translate(-2164.5561,-2257.6896)"><g
       id="g26-6-8-1"
       transform="translate(787.46982,409.49037)"
       style="fill:#ffffff"><text
         id="text5095-3-4-1-8-7-5-30-0-3-34-9-8-6-1-7-9-1-7-0-4-9-93-6-24-6-9-3"
         y="1877.0675"
         x="1471.9938"
         style="font-style:normal;font-weight:normal;font-size:19.7792px;line-height:0.9;font-family:sans-serif;letter-spacing:0px;word-spacing:0px;fill:#ffffff;fill-opacity:1;stroke:none;stroke-width:0.00833628px;stroke-linecap:butt;stroke-linejoin:miter;stroke-opacity:1"
         xml:space="preserve"><tspan
           style="font-style:normal;font-variant:normal;font-weight:bold;font-stretch:normal;font-size:22.4521px;line-height:0.9;font-family:Montserrat;-inkscape-font-specification:'Montserrat Bold';fill:#ffffff;stroke-width:0.00833628px"
           id="tspan30-8-1-0-30-03-8-8"
           x="1471.9938"
           y="1877.0675">SANDY RIDGE</tspan><tspan
           style="font-style:normal;font-variant:normal;font-weight:300;font-stretch:normal;font-size:17.6462px;line-height:0.9;font-family:Montserrat;-inkscape-font-specification:'Montserrat Light';fill:#ffffff;stroke-width:0.00833628px"
           y="1895.1517"
           x="1471.9938"
           id="tspan3-1-5-7-5-1-6-9-7-3-6-8-4-7" /></text><path
         id="rect24-5-8-3-0-1-6-9-0-1-42"
         style="fill:#ffffff;stroke-width:0.0213344"
         d="m 1420.5747,1848.5723 c -5.2245,5.2234 -10.4492,10.4466 -15.6738,15.6699 -2.6754,-2.6729 -5.3485,-5.3481 -8.0254,-8.0195 -6.598,6.5947 -13.1944,13.191 -19.7891,19.789 10.3389,10.3428 20.6794,20.684 31.0215,31.0235 4.2831,-4.2775 8.5622,-8.5589 12.8438,-12.8379 4.2802,4.2789 8.5579,8.5605 12.8398,12.8379 10.3415,-10.3395 20.6813,-20.6808 31.0195,-31.0235 -6.5947,-6.598 -13.1911,-13.1943 -19.789,-19.789 -2.6763,2.6707 -5.3487,5.3453 -8.0235,8.0175 -5.3499,-5.3467 -10.6974,-10.6958 -16.0488,-16.041 -0.125,0.1244 -0.25,0.2487 -0.375,0.3731 z" /><path
         id="rect24-5-8-3-0-1-6-9-0-1-8-7"
         style="fill:#333333;stroke-width:0.0213344"
         d="m 1420.9473,1851.9391 -32.0973,32.0971 19.2583,19.2585 10.6183,-10.6184 c 0.1131,-4.6511 0.2147,-9.3022 0.2611,-13.9547 -2.1552,0.079 -4.3097,0.1752 -6.4614,0.3131 v -4.6385 c 1.9765,0.2164 3.9633,0.3124 5.95,0.3813 0.292,0.081 0.5152,-0.028 0.5184,-0.3503 -0.038,-2.3157 -0.013,-4.6459 -0.3065,-6.9488 1.4713,0 2.9429,0 4.4141,0 0.035,0 0.068,-0.011 0.1028,-0.014 -0.2681,2.4348 -0.1966,4.9169 -0.2296,7.3725 2.1345,-0.046 4.2789,-0.069 6.3931,-0.3962 v 1.985 c 0.015,0.8372 -0.024,1.6779 0.012,2.5118 -2.1138,-0.2953 -4.2532,-0.2642 -6.3823,-0.2907 0.047,4.6892 0.1238,9.3782 0.2094,14.0669 l 10.5817,10.5821 19.2583,-19.2585 z m 0,2.5686 11.132,11.1319 -0.02,0.02 -11.1118,-4.1682 -11.1119,4.1682 -0.02,-0.02 z m -24.0718,5.4556 -16.0488,16.0486 6.4195,6.4195 12.0187,-12.0189 -2.3909,-0.897 -11.1116,4.1683 -0.02,-0.02 11.1317,-11.1323 5.1359,5.136 1.2849,-1.2848 z m 48.1456,0 -6.4196,6.4195 1.2844,1.2843 5.1348,-5.1349 11.1321,11.1322 -0.02,0.02 -11.1117,-4.168 -2.3895,0.8964 12.0189,12.0187 6.4195,-6.4194 z" /><text
         xml:space="preserve"
         style="font-size:16.9333px;text-align:start;writing-mode:lr-tb;direction:ltr;text-anchor:start;fill:#ffffff;stroke-width:6.00001"
         x="1471.7419"
         y="1895.7882"
         id="text1-8-1-4-7"><tspan
           id="tspan1-2-2-3-9"
           style="font-style:normal;font-variant:normal;font-weight:normal;font-stretch:normal;font-family:Montserrat;-inkscape-font-specification:Montserrat;fill:#ffffff;stroke-width:6"
           x="1471.7419"
           y="1895.7882">CHURCH</tspan></text></g></g></svg>
